# Wavefront Obj file
# 
# verts: 61 uv-s: 61
mtllib oval_rug.mtl

g pDisc1
#pivot 0.000000 0.000000 0.000000

v -2.517614 0.000000 1.081746
v 2.517614 0.000000 1.081746
v 0.000000 0.000000 -2.163492
v 0.000000 0.000000 2.163492
v 2.517614 0.000000 -1.081747
v -2.517614 0.000000 -1.081746
v 0.000000 0.000000 0.000000
v -2.907090 0.000000 0.000000
v -1.453545 0.000000 1.873639
v 0.000000 0.000000 1.081746
v -1.258807 0.000000 -0.540873
v -1.258807 0.000000 0.540873
v 1.453546 0.000000 1.873639
v 2.907090 0.000000 0.000000
v 1.258807 0.000000 -0.540873
v 1.258807 0.000000 0.540873
v 1.453545 0.000000 -1.873640
v -1.453546 0.000000 -1.873639
v 0.000000 0.000000 -1.081746
v -1.888211 0.000000 -0.811310
v -2.808034 0.000000 -0.559953
v -2.082949 0.000000 0.270437
v -1.258807 0.000000 0.000000
v -1.985580 0.000000 -0.270436
v -2.808034 0.000000 0.559953
v -2.055623 0.000000 1.529820
v -1.356176 0.000000 1.207256
v -2.034264 0.000000 0.874065
v -0.752410 0.000000 2.089773
v 0.000000 0.000000 1.622619
v -0.629404 0.000000 0.811310
v -0.678088 0.000000 1.414938
v 0.000000 0.000000 0.540873
v -0.629404 0.000000 -0.270436
v -0.629404 0.000000 0.270437
v 0.752411 0.000000 2.089773
v 1.356176 0.000000 1.207256
v 0.629404 0.000000 0.811310
v 0.678088 0.000000 1.414938
v 2.055623 0.000000 1.529820
v 2.808034 0.000000 0.559953
v 2.082949 0.000000 0.270436
v 2.034264 0.000000 0.874064
v 2.808034 0.000000 -0.559953
v 1.888210 0.000000 -0.811310
v 1.258807 0.000000 0.000000
v 1.985580 0.000000 -0.270437
v 0.629403 0.000000 -0.270437
v 0.629403 0.000000 0.270436
v 2.055623 0.000000 -1.529820
v 0.726772 0.000000 -1.477693
v 0.629403 0.000000 -0.811310
v 1.307491 0.000000 -1.144501
v 0.752410 0.000000 -2.089773
v -0.752411 0.000000 -2.089773
v -0.726773 0.000000 -1.477693
v 0.000000 0.000000 -1.748129
v -2.055624 0.000000 -1.529820
v -0.629404 0.000000 -0.811310
v -1.307492 0.000000 -1.144501
v 0.000000 0.000000 -0.540873
# 61 positions

vt 0.283494 0.500000
vt 0.283494 0.625000
vt 0.175240 0.687500
vt 0.158494 0.562500
vt 0.066987 0.750000
vt 0.017037 0.629409
vt 0.000000 0.500000
vt 0.141747 0.437500
vt 0.283494 0.375000
vt 0.017037 0.370590
vt 0.150120 0.297997
vt 0.066987 0.250000
vt 0.146447 0.146447
vt 0.250000 0.066987
vt 0.266747 0.220994
vt 0.370591 0.017037
vt 0.383373 0.172997
vt 0.500000 0.000000
vt 0.500000 0.125000
vt 0.500000 0.250000
vt 0.391747 0.312500
vt 0.500000 0.375000
vt 0.391747 0.437500
vt 0.500000 0.500000
vt 0.391747 0.562500
vt 0.608253 0.312500
vt 0.616627 0.172997
vt 0.629410 0.017037
vt 0.750000 0.066987
vt 0.733253 0.220994
vt 0.716506 0.375000
vt 0.853553 0.146447
vt 0.849880 0.297997
vt 0.933013 0.250000
vt 0.982963 0.370591
vt 1.000000 0.500000
vt 0.858253 0.437500
vt 0.982963 0.629410
vt 0.841506 0.562500
vt 0.933013 0.750000
vt 0.824759 0.687500
vt 0.716506 0.625000
vt 0.716506 0.500000
vt 0.608253 0.562500
vt 0.608253 0.437500
vt 0.608253 0.687500
vt 0.724880 0.764503
vt 0.853553 0.853553
vt 0.750000 0.933013
vt 0.625000 0.841506
vt 0.500000 0.750000
vt 0.629409 0.982963
vt 0.500000 0.904006
vt 0.500000 1.000000
vt 0.370590 0.982963
vt 0.250000 0.933013
vt 0.375000 0.841506
vt 0.146447 0.853553
vt 0.275120 0.764503
vt 0.391747 0.687500
vt 0.500000 0.625000
# 61 texture coordinates

vn 0.000000 1.000000 0.000000
vn 0.000000 1.000000 0.000000
vn 0.000000 1.000000 0.000000
vn 0.000000 1.000000 0.000000
vn 0.000000 1.000000 0.000000
vn 0.000000 1.000000 0.000000
vn 0.000000 1.000000 0.000000
vn 0.000000 1.000000 0.000000
vn 0.000000 1.000000 0.000000
vn 0.000000 1.000000 0.000000
vn 0.000000 1.000000 0.000000
vn 0.000000 1.000000 0.000000
vn 0.000000 1.000000 0.000000
vn 0.000000 1.000000 0.000000
vn 0.000000 1.000000 0.000000
vn 0.000000 1.000000 0.000000
vn 0.000000 1.000000 0.000000
vn 0.000000 1.000000 0.000000
vn 0.000000 1.000000 0.000000
vn 0.000000 1.000000 0.000000
vn 0.000000 1.000000 0.000000
vn 0.000000 1.000000 0.000000
vn 0.000000 1.000000 0.000000
vn 0.000000 1.000000 0.000000
vn 0.000000 1.000000 0.000000
vn 0.000000 1.000000 0.000000
vn 0.000000 1.000000 0.000000
vn 0.000000 1.000000 0.000000
vn 0.000000 1.000000 0.000000
vn 0.000000 1.000000 0.000000
vn 0.000000 1.000000 0.000000
vn 0.000000 1.000000 0.000000
vn 0.000000 1.000000 0.000000
vn 0.000000 1.000000 0.000000
vn 0.000000 1.000000 0.000000
vn 0.000000 1.000000 0.000000
vn 0.000000 1.000000 0.000000
vn 0.000000 1.000000 0.000000
vn 0.000000 1.000000 0.000000
vn 0.000000 1.000000 0.000000
vn 0.000000 1.000000 0.000000
vn 0.000000 1.000000 0.000000
vn 0.000000 1.000000 0.000000
vn 0.000000 1.000000 0.000000
vn 0.000000 1.000000 0.000000
vn 0.000000 1.000000 0.000000
vn 0.000000 1.000000 0.000000
vn 0.000000 1.000000 0.000000
vn 0.000000 1.000000 0.000000
vn 0.000000 1.000000 0.000000
vn 0.000000 1.000000 0.000000
vn 0.000000 1.000000 0.000000
vn 0.000000 1.000000 0.000000
vn 0.000000 1.000000 0.000000
vn 0.000000 1.000000 0.000000
vn 0.000000 1.000000 0.000000
vn 0.000000 1.000000 0.000000
vn 0.000000 1.000000 0.000000
vn 0.000000 1.000000 0.000000
vn 0.000000 1.000000 0.000000
vn 0.000000 1.000000 0.000000
# 61 normals

usemtl initialShadingGroup
f 23/1/1 11/2/2 20/3/3 24/4/4
f 20/3/3 6/5/5 21/6/6 24/4/4
f 21/6/6 8/7/7 22/8/8 24/4/4
f 22/8/8 12/9/9 23/1/1 24/4/4
f 22/8/8 8/7/7 25/10/10 28/11/11
f 25/10/10 1/12/12 26/13/13 28/11/11
f 26/13/13 9/14/14 27/15/15 28/11/11
f 27/15/15 12/9/9 22/8/8 28/11/11
f 27/15/15 9/14/14 29/16/16 32/17/17
f 29/16/16 4/18/18 30/19/19 32/17/17
f 30/19/19 10/20/20 31/21/21 32/17/17
f 31/21/21 12/9/9 27/15/15 32/17/17
f 31/21/21 10/20/20 33/22/22 35/23/23
f 33/22/22 7/24/24 34/25/25 35/23/23
f 34/25/25 11/2/2 23/1/1 35/23/23
f 23/1/1 12/9/9 31/21/21 35/23/23
f 38/26/26 10/20/20 30/19/19 39/27/27
f 30/19/19 4/18/18 36/28/28 39/27/27
f 36/28/28 13/29/29 37/30/30 39/27/27
f 37/30/30 16/31/31 38/26/26 39/27/27
f 37/30/30 13/29/29 40/32/32 43/33/33
f 40/32/32 2/34/34 41/35/35 43/33/33
f 41/35/35 14/36/36 42/37/37 43/33/33
f 42/37/37 16/31/31 37/30/30 43/33/33
f 42/37/37 14/36/36 44/38/38 47/39/39
f 44/38/38 5/40/40 45/41/41 47/39/39
f 45/41/41 15/42/42 46/43/43 47/39/39
f 46/43/43 16/31/31 42/37/37 47/39/39
f 46/43/43 15/42/42 48/44/44 49/45/45
f 48/44/44 7/24/24 33/22/22 49/45/45
f 33/22/22 10/20/20 38/26/26 49/45/45
f 38/26/26 16/31/31 46/43/43 49/45/45
f 52/46/46 15/42/42 45/41/41 53/47/47
f 45/41/41 5/40/40 50/48/48 53/47/47
f 50/48/48 17/49/49 51/50/50 53/47/47
f 51/50/50 19/51/51 52/46/46 53/47/47
f 51/50/50 17/49/49 54/52/52 57/53/53
f 54/52/52 3/54/54 55/55/55 57/53/53
f 55/55/55 18/56/56 56/57/57 57/53/53
f 56/57/57 19/51/51 51/50/50 57/53/53
f 56/57/57 18/56/56 58/58/58 60/59/59
f 58/58/58 6/5/5 20/3/3 60/59/59
f 20/3/3 11/2/2 59/60/60 60/59/59
f 59/60/60 19/51/51 56/57/57 60/59/59
f 59/60/60 11/2/2 34/25/25 61/61/61
f 34/25/25 7/24/24 48/44/44 61/61/61
f 48/44/44 15/42/42 52/46/46 61/61/61
f 52/46/46 19/51/51 59/60/60 61/61/61

# 48 faces
